<?xml version="1.0" encoding="UTF-8" standalone="no"?>
<!-- Created with Inkscape (http://www.inkscape.org/) -->

<svg
   width="500px"
   height="500px"
   viewBox="0 0 500 500"
   version="1.1"
   id="SVGRoot"
   sodipodi:docname="logo.svg"
   inkscape:version="1.1.2 (b8e25be833, 2022-02-05)"
   xmlns:inkscape="http://www.inkscape.org/namespaces/inkscape"
   xmlns:sodipodi="http://sodipodi.sourceforge.net/DTD/sodipodi-0.dtd"
   xmlns="http://www.w3.org/2000/svg"
   xmlns:svg="http://www.w3.org/2000/svg">
  <sodipodi:namedview
     id="namedview10"
     pagecolor="#ffffff"
     bordercolor="#666666"
     borderopacity="1.0"
     inkscape:pageshadow="2"
     inkscape:pageopacity="0.0"
     inkscape:pagecheckerboard="0"
     showgrid="false"
     inkscape:zoom="1.662"
     inkscape:cx="250"
     inkscape:cy="217.80987"
     inkscape:window-width="1920"
     inkscape:window-height="1017"
     inkscape:window-x="-8"
     inkscape:window-y="-8"
     inkscape:window-maximized="1"
     inkscape:current-layer="SVGRoot" />
  <defs
     id="defs18703" />
  <g
     id="layer1"
     transform="matrix(0.96153142,0,0,0.948772,19.117608,25.38326)"
     style="fill:#f9f9f9">
    <text
       xml:space="preserve"
       style="font-size:627.492px;line-height:1.25;font-family:sans-serif;fill:#f9f9f9;stroke-width:2.84375"
       x="-37.714535"
       y="437.67282"
       id="text8640"
       transform="scale(0.88330279,1.1321146)"><tspan
         id="tspan8638"
         x="-37.714535"
         y="437.67282"
         style="font-style:normal;font-variant:normal;font-weight:normal;font-stretch:normal;font-size:627.492px;font-family:Roboto;-inkscape-font-specification:Roboto;fill:#f9f9f9;stroke-width:2.84375">F</tspan></text>
    <g
       id="ðŸ”-Product-Icons"
       stroke="none"
       stroke-width="1"
       fill="none"
       fill-rule="evenodd"
       transform="matrix(9.9248635,0,0,12.117816,239.02112,191.76795)"
       style="fill:#f9f9f9">
      <g
         id="ic_fluent_library_28_filled"
         fill="#212121"
         fill-rule="nonzero"
         style="fill:#f9f9f9">
        <path
           d="m 5.9897,3 c 1.104,0 2,0.896 2,2 v 18 c 0,1.104 -0.896,2 -2,2 h -1.989 c -1.105,0 -2,-0.896 -2,-2 V 5 c 0,-1.104 0.895,-2 2,-2 z m 7,0 c 1.104,0 2,0.896 2,2 v 18 c 0,1.104 -0.896,2 -2,2 h -1.995 c -1.105,0 -2,-0.896 -2,-2 V 5 c 0,-1.104 0.895,-2 2,-2 z m 9.0804,3.5432 3.86,15.483 c 0.267,1.071 -0.386,2.157 -1.457,2.425 l -1.963,0.489 c -1.071,0.267 -2.157,-0.385 -2.424,-1.457 l -3.86,-15.483 c -0.268,-1.072 0.385,-2.157 1.456,-2.425 l 1.963,-0.489 c 1.071,-0.268 2.157,0.385 2.425,1.457 z"
           id="ðŸŽ¨-Color"
           style="fill:#f9f9f9" />
      </g>
    </g>
  </g>
</svg>
