<?xml version="1.0" encoding="UTF-8" standalone="no"?>
<svg
   viewBox="0 0 89 89"
   version="1.1"
   id="svg9096"
   sodipodi:docname="logo.svg"
   inkscape:version="1.1.2 (b8e25be833, 2022-02-05)"
   xmlns:inkscape="http://www.inkscape.org/namespaces/inkscape"
   xmlns:sodipodi="http://sodipodi.sourceforge.net/DTD/sodipodi-0.dtd"
   xmlns="http://www.w3.org/2000/svg"
   xmlns:svg="http://www.w3.org/2000/svg">
  <defs
     id="defs9100" />
  <sodipodi:namedview
     id="namedview9098"
     pagecolor="#ffffff"
     bordercolor="#666666"
     borderopacity="1.0"
     inkscape:pageshadow="2"
     inkscape:pageopacity="0.0"
     inkscape:pagecheckerboard="0"
     showgrid="false"
     inkscape:zoom="6.6023116"
     inkscape:cx="44.454127"
     inkscape:cy="44.378396"
     inkscape:window-width="1920"
     inkscape:window-height="1017"
     inkscape:window-x="-8"
     inkscape:window-y="-8"
     inkscape:window-maximized="1"
     inkscape:current-layer="svg9096" />
  <rect
     style="fill:#f9f9f9"
     id="rect9581"
     width="42.560852"
     height="15.297672"
     x="4.8467875"
     y="12.419892"
     ry="0" />
  <rect
     style="fill:#f9f9f9;stroke-width:0.988115"
     id="rect9627"
     width="16.812294"
     height="50.72393"
     x="4.8467875"
     y="28.914145" />
  <rect
     style="fill:#f9f9f9;stroke-width:0.977344"
     id="rect9629"
     width="23.871702"
     height="16.054983"
     x="22.627163"
     y="46.044479" />
  <g
     id="ðŸ”-Product-Icons"
     stroke="none"
     stroke-width="1"
     fill="none"
     fill-rule="evenodd"
     transform="matrix(1.6255606,0,0,1.6678099,45.792394,39.583157)"
     style="fill:#f9f9f9">
    <g
       id="ic_fluent_library_28_filled"
       fill="#212121"
       fill-rule="nonzero"
       style="fill:#f9f9f9">
      <path
         d="m 5.9897,3 c 1.104,0 2,0.896 2,2 v 18 c 0,1.104 -0.896,2 -2,2 h -1.989 c -1.105,0 -2,-0.896 -2,-2 V 5 c 0,-1.104 0.895,-2 2,-2 z m 7,0 c 1.104,0 2,0.896 2,2 v 18 c 0,1.104 -0.896,2 -2,2 h -1.995 c -1.105,0 -2,-0.896 -2,-2 V 5 c 0,-1.104 0.895,-2 2,-2 z m 9.0804,3.5432 3.86,15.483 c 0.267,1.071 -0.386,2.157 -1.457,2.425 l -1.963,0.489 c -1.071,0.267 -2.157,-0.385 -2.424,-1.457 l -3.86,-15.483 c -0.268,-1.072 0.385,-2.157 1.456,-2.425 l 1.963,-0.489 c 1.071,-0.268 2.157,0.385 2.425,1.457 z"
         id="ðŸŽ¨-Color"
         style="fill:#f9f9f9" />
    </g>
  </g>
</svg>
