<?xml version="1.0" encoding="UTF-8" standalone="no"?>
<!-- Created with Inkscape (http://www.inkscape.org/) -->

<svg
   width="600px"
   height="600px"
   viewBox="0 0 600 600"
   version="1.1"
   id="SVGRoot"
   sodipodi:docname="logo.svg"
   inkscape:version="1.1.2 (b8e25be833, 2022-02-05)"
   xmlns:inkscape="http://www.inkscape.org/namespaces/inkscape"
   xmlns:sodipodi="http://sodipodi.sourceforge.net/DTD/sodipodi-0.dtd"
   xmlns="http://www.w3.org/2000/svg"
   xmlns:svg="http://www.w3.org/2000/svg">
  <sodipodi:namedview
     id="namedview829"
     pagecolor="#ffffff"
     bordercolor="#666666"
     borderopacity="1.0"
     inkscape:pageshadow="2"
     inkscape:pageopacity="0.0"
     inkscape:pagecheckerboard="0"
     inkscape:document-units="px"
     showgrid="false"
     inkscape:zoom="0.74029882"
     inkscape:cx="396.46153"
     inkscape:cy="345.8063"
     inkscape:window-width="1920"
     inkscape:window-height="1017"
     inkscape:window-x="-8"
     inkscape:window-y="-8"
     inkscape:window-maximized="1"
     inkscape:current-layer="layer1" />
  <defs
     id="defs824" />
  <g
     inkscape:label="å›¾å±‚ 1"
     inkscape:groupmode="layer"
     id="layer1">
    <rect
       style="fill:#4cae4f;fill-opacity:1;stroke-width:0.913732"
       id="rect936"
       width="640.28198"
       height="631.20929"
       x="-17.56048"
       y="-12.54019" />
    <g
       id="ðŸ”-Product-Icons"
       stroke="none"
       stroke-width="1"
       fill="none"
       fill-rule="evenodd"
       transform="matrix(10.910391,0,0,11.683643,294.42284,257.88039)"
       style="fill:#ffffff">
      <g
         id="ic_fluent_library_28_filled"
         fill="#212121"
         fill-rule="nonzero"
         style="fill:#ffffff">
        <path
           d="m 5.9897,3 c 1.104,0 2,0.896 2,2 v 18 c 0,1.104 -0.896,2 -2,2 h -1.989 c -1.105,0 -2,-0.896 -2,-2 V 5 c 0,-1.104 0.895,-2 2,-2 z m 7,0 c 1.104,0 2,0.896 2,2 v 18 c 0,1.104 -0.896,2 -2,2 h -1.995 c -1.105,0 -2,-0.896 -2,-2 V 5 c 0,-1.104 0.895,-2 2,-2 z m 9.0804,3.5432 3.86,15.483 c 0.267,1.071 -0.386,2.157 -1.457,2.425 l -1.963,0.489 c -1.071,0.267 -2.157,-0.385 -2.424,-1.457 l -3.86,-15.483 c -0.268,-1.072 0.385,-2.157 1.456,-2.425 l 1.963,-0.489 c 1.071,-0.268 2.157,0.385 2.425,1.457 z"
           id="ðŸŽ¨-Color"
           style="fill:#ffffff" />
      </g>
    </g>
    <text
       xml:space="preserve"
       style="font-size:600px;line-height:1.25;font-family:sans-serif;fill:#ffffff"
       x="-5.403224"
       y="540.32239"
       id="text3426"><tspan
         sodipodi:role="line"
         id="tspan3424"
         x="-5.403224"
         y="540.32239"
         style="font-style:normal;font-variant:normal;font-weight:normal;font-stretch:normal;font-size:600px;font-family:Helvetica-Black-SemiBold;-inkscape-font-specification:Helvetica-Black-SemiBold;fill:#ffffff">F</tspan></text>
  </g>
</svg>
